<svg xmlns="http://www.w3.org/2000/svg" viewBox="0 0 64 64" role="img" aria-labelledby="title desc">
  <title>Coqui</title>
  <desc>Abstract Coqui shell mark</desc>
  <defs>
    <linearGradient id="shell" x1="8" y1="8" x2="56" y2="56" gradientUnits="userSpaceOnUse">
      <stop offset="0" stop-color="#0f766e" />
      <stop offset="1" stop-color="#1d4ed8" />
    </linearGradient>
  </defs>
  <rect width="64" height="64" rx="18" fill="#f4f8f7" />
  <path d="M32 10c-8.6 0-15.6 7-15.6 15.6v6.7c0 11.5 9.3 20.8 20.8 20.8h1.6c4.8 0 8.6-3.9 8.6-8.6 0-4.8-3.9-8.6-8.6-8.6h-4.9c-2.3 0-4.2-1.9-4.2-4.2v-6.1c0-1.4 1.1-2.5 2.5-2.5h13.9c.9 0 1.7-.5 2.2-1.2.4-.8.4-1.8-.1-2.5C43.4 13.8 38 10 32 10Z" fill="url(#shell)" />
  <circle cx="39.5" cy="32.5" r="3.3" fill="#ffffff" />
  <circle cx="40.2" cy="32.1" r="1.5" fill="#0f172a" />
  <path d="M45.5 40.3c-1.8 2.8-4.9 4.5-8.3 4.5h-1.6c-8.1 0-14.8-6.6-14.8-14.8v-4.4c0-5.1 4.1-9.2 9.2-9.2 4 0 7.7 1.8 10.1 4.9H32c-3.6 0-6.5 2.9-6.5 6.5v3.9c0 4.7 3.8 8.5 8.5 8.5h4.9c2.6 0 4.9 1.4 6.1 3.6Z" fill="#ffffff" fill-opacity="0.18" />
</svg>
